# xmcd
#
# Track frame offsets:
#	150
#	3232
#	24445
#	51330
#	53830
#	75417
#	102690
#	132462
#	135912
#	158152
#	160377
#	185085
#	211180
#	227787
#	256300
#	284867
#	301585
#
# Disc length: 4428 seconds
#
# Revision: 0
# Processed by: cddbd v1.5.1PL0 Copyright (c) Steve Scherf et al.
# Submitted via: dBpowerAMP V4.0
#
DISCID=e7114a11
DTITLE=Nana - five loaves and two fish
DYEAR=2004
DGENRE=Soul
TTITLE0=Intro
TTITLE1=So close
TTITLE2=Mama afrika
TTITLE3=Wild thang
TTITLE4=Wanna Hold U
TTITLE5=Asambe
TTITLE6=Take me
TTITLE7=My many demons
TTITLE8=Can't wait
TTITLE9=Oh!
TTITLE10=Koboyi
TTITLE11=Those days
TTITLE12=Umhome
TTITLE13=Packin' ma bags
TTITLE14=Gegege
TTITLE15=Prozak
TTITLE16=U send me out
EXTD=got this from the cd wherehouse in capetown
EXTT0=
EXTT1=
EXTT2=
EXTT3=
EXTT4=
EXTT5=
EXTT6=
EXTT7=
EXTT8=
EXTT9=
EXTT10=
EXTT11=
EXTT12=
EXTT13=
EXTT14=
EXTT15=
EXTT16=
PLAYORDER=
